<?xml version="1.0" encoding="UTF-8"?>
<svg id="_レイヤー_1" data-name="レイヤー_1" xmlns="http://www.w3.org/2000/svg" version="1.1" viewBox="0 0 1920 1080">
  <!-- Generator: Adobe Illustrator 29.5.0, SVG Export Plug-In . SVG Version: 2.1.0 Build 137)  -->
  <defs>
    <style>
      .st0 {
        fill: #43b149;
      }

      .st1 {
        fill: #e83817;
      }

      .st2 {
        fill: #fff;
      }
    </style>
  </defs>
  <g id="UI">
    <g>
      <path class="st1" d="M315,822.7l-2-9.7c57.2-12.1,84.5-35.3,91.6-42.2,12.5-12.2,19.3-28.9,17.4-42.6-1.4-9.6-6.9-17.3-16.1-22.2l4.7-8.7c12,6.5,19.4,16.7,21.2,29.5,2.4,17-5.4,36.5-20.3,51.1-29.6,28.9-81.3,41.6-96.4,44.8h0Z"/>
      <polygon class="st1" points="317.6 829.4 313.6 805.8 303.8 819.6 317.6 829.4"/>
      <path class="st1" d="M949.4,808.1c-2.7,0-5.4-.1-8.2-.4-66.3-5.9-168-76.2-179.3-84.2-38.4-27-147.7-83.8-331.7-28.2l-2.9-9.5c188.1-56.8,300.6,1.8,340.2,29.6,86,60.4,150.2,80.2,174.5,82.4,23.9,2.1,43.5-6.2,53.7-22.8,8.3-13.6,8.6-30.5.7-43.1-5.3-8.5-19.1-22.4-51.4-19.2l-1-9.8c27.5-2.7,49.6,6,60.7,23.8,9.9,15.8,9.6,36.8-.7,53.5-11,17.9-30.7,27.8-54.8,27.8h0Z"/>
      <polygon class="st1" points="947.8 719.7 944.6 696 934.3 709.4 947.8 719.7"/>
      <path class="st1" d="M836.3,949.7c-3.5,0-8.3-2.2-15.8-5.7-12.7-5.8-34-15.6-43.5-9.9-3.4,2.1-5.3,6.3-5.7,13l-9.8-.6c.6-10,4.1-17.1,10.5-20.9,13.9-8.4,36.3,1.9,52.7,9.4,1.4.7,3,1.4,4.5,2-15.5-32.3-46.1-87.5-115.4-92.5-26.9-2-57.6-8.9-81.9-18.6-32.6-13-54.2-30.6-62.2-51.1l9.2-3.6c8.9,22.5,35.8,37.2,56.7,45.5,23.5,9.3,53,16,79,17.9,34.6,2.5,64.3,17.1,88.3,43.3,19.8,21.6,31.5,46.8,38.6,61.9,2,4.3.4,6.8-.7,8-1.2,1.2-2.6,1.8-4.3,1.8h0Z"/>
      <polygon class="st1" points="778.4 944.9 754.5 945.5 766.7 957.2 778.4 944.9"/>
      <path class="st1" d="M159.3,881.1l-8.5-5.1c18.8-31.2,75.1-34.9,120.3-37.9,28.2-1.8,60.2-4,60.2-13.3h9.9c0,18.6-30.6,20.6-69.5,23.1-42.9,2.8-96.4,6.3-112.5,33.1h0Z"/>
      <polygon class="st1" points="144.9 872.3 166.8 882.1 150.9 888.1 144.9 872.3"/>
      <path class="st1" d="M479.9,969.6c-5-35.6-21-46.3-36.4-56.6-20.9-13.9-40.6-27.1-30.5-90.1l.6-3.8,3.8-.4c54.4-5.3,79.4-17.3,101.5-27.9,15.6-7.5,30.3-14.5,52.4-17.6l1.4,9.8c-20.6,2.9-34,9.3-49.5,16.8-22.3,10.7-47.5,22.8-101,28.5-7.8,53.5,7.5,63.7,26.8,76.5,16.5,11,35.1,23.4,40.7,63.5l-9.8,1.4h0Z"/>
      <polygon class="st1" points="472.6 968.7 496.4 966 485.9 979.3 472.6 968.7"/>
      <polygon class="st1" points="408.5 694 357.1 640.1 357.1 687.9 347.2 687.9 347.2 615.5 415.7 687.2 408.5 694"/>
      <polygon class="st1" points="364.2 686.3 340.2 686.3 352.2 698.3 364.2 686.3"/>
      <polygon class="st1" points="280.6 696.4 270.8 696.4 270.8 615.5 343.7 688.5 336.7 695.5 280.6 639.4 280.6 696.4"/>
      <polygon class="st1" points="287.7 694.8 263.7 694.8 275.7 706.8 287.7 694.8"/>
      <path class="st1" d="M243.4,793.8v-65.8l43.9,32.9-43.9,32.9h0ZM253.3,747.7v26.4l17.6-13.2-17.6-13.2Z"/>
      <rect class="st1" x="243.4" y="737.8" width="9.9" height="46.1"/>
      <rect class="st1" x="205.8" y="788.1" width="9.9" height="4.2" transform="translate(-96.5 32.3) rotate(-7.1)"/>
      <polygon class="st1" points="222.6 789.2 198.8 792.2 212.2 802.6 222.6 789.2"/>
      <path class="st1" d="M1133.9,733.5l-2.4-9.6c69.5-17.4,108.8-49.3,122.5-73.3,8.1-14.2,9.9-29,5.4-43.9l9.4-2.8c5.3,17.6,3.2,35-6.3,51.6-22.3,39.3-81.1,66.1-128.6,78h0Z"/>
      <polygon class="st1" points="1131.5 716.6 1137.1 740 1122.6 731.1 1131.5 716.6"/>
      <path class="st1" d="M1183.1,733.1l-2.8-9.5c77.3-22.5,115-61.8,112-117l9.8-.5c1.7,31.9-8.9,59.3-31.8,81.3-19.9,19.2-49.3,34.6-87.4,45.7h0Z"/>
      <polygon class="st1" points="1186.5 739.4 1180 716.3 1171.7 731.1 1186.5 739.4"/>
      <path class="st1" d="M1345.6,462.8l-8.5-4.9c23.4-40.6,53.4-63.6,91.7-70.4,33.1-5.9,66.8,1,99.3,7.6,40.1,8.2,74.7,15.2,98-4.1,22.6-18.8,33.1-62.7,32.1-134.4h9.9c1.1,75.7-10.2,120.9-35.6,142-26.9,22.3-65.4,14.5-106.3,6.1-31.6-6.4-64.3-13.1-95.6-7.5-35.2,6.3-63,27.7-84.9,65.6h0Z"/>
      <polygon class="st1" points="1650.9 258.2 1674.8 258 1662.8 246.1 1650.9 258.2"/>
      <path class="st1" d="M1558,502c9,.2,21.4-2,29.1-13.8,6.4-9.9,13.6-15.6,22.1-17.4,14.9-3.1,29.8,6.8,45.6,17.2,17.1,11.3,34.8,23,52.5,18.2l2.6,9.5c-3.7,1-7.4,1.5-11,1.5-17.9,0-34.6-11-49.6-21-14-9.3-27.3-18.1-38.1-15.8-5.7,1.2-10.9,5.5-15.8,13.1-8,12.4-21,18.7-37.6,18.3-27.8-.7-60.8-20.9-75.2-46l8.6-4.9c12.6,22,42.7,40.4,66.9,41.1"/>
      <polygon class="st1" points="1702.6 500.4 1711.5 522.7 1718.2 507.1 1702.6 500.4"/>
      <path class="st1" d="M1219.3,735l-1.1-9.8c80-8.8,113.2-44,111.1-117.6v-4.6c-.1,0,4.4-.5,4.4-.5,91.7-9.4,107.5-66.9,119.1-108.9,5.5-20,9.9-35.8,21.8-40.9l3.9,9.1c-7.5,3.2-11.5,17.6-16.1,34.4-11.5,41.6-28.7,104-123.1,115.6.4,40.6-10.3,70.2-32.5,90.5-19.5,17.8-47.3,28.2-87.5,32.6h0Z"/>
      <polygon class="st1" points="1219.2 718 1221.6 741.8 1208.4 731.1 1219.2 718"/>
      <g>
        <path class="st1" d="M1218.8,617.8c-20.7,0-38.1-7.9-47.4-22.2-8.1-12.4-16.6-40.2,16.9-87.1l8,5.7c-22,30.8-28.1,58.5-16.7,76,9.7,14.9,31,21,55.5,16l1.2-.2h.4c7.5-.7,54.2-10.8,83.7-39.7,10.7-10.4,17-24,17-36.2,0-8.1-2.9-15.2-8.3-20.5l6.9-7.1c7.4,7.2,11.3,16.7,11.3,27.5,0,14.9-7.4,31.1-19.9,43.3-18,17.6-41.3,28.2-57.6,34.1-12.2,4.4-26.6,8-32.6,8.4h0c-6.3,1.3-12.5,2-18.4,2h0ZM1236.3,606.1h0Z"/>
        <polygon class="st1" points="1341 497.5 1326.7 516.7 1324.3 499.9 1341 497.5"/>
      </g>
      <g>
        <polygon class="st1" points="1324.4 492.6 1275.3 441.2 1275.3 486.3 1265.5 486.3 1265.5 416.6 1331.5 485.8 1324.4 492.6"/>
        <polygon class="st1" points="1282.4 484.7 1258.4 484.7 1270.4 496.6 1282.4 484.7"/>
      </g>
      <g>
        <polygon class="st1" points="1201.9 494.4 1192 494.4 1192 416.7 1262.4 487.1 1255.4 494 1201.9 440.5 1201.9 494.4"/>
        <polygon class="st1" points="1208.9 492.8 1185 492.8 1196.9 504.8 1208.9 492.8"/>
      </g>
      <g>
        <g>
          <polygon class="st2" points="1167.4 582.2 1196.9 560 1167.4 537.9 1137.8 560 1167.4 582.2"/>
          <path class="st1" d="M1167.4,588.3l-37.8-28.3,37.8-28.3,37.8,28.3-37.8,28.3ZM1146.1,560l21.3,16,21.3-16-21.3-16-21.3,16Z"/>
        </g>
        <rect class="st1" x="1162.4" y="537.9" width="9.9" height="44.3"/>
      </g>
      <g>
        <path class="st1" d="M1249.6,588.3l-37.8-28.3,37.8-28.3,37.8,28.3-37.8,28.3ZM1228.3,560l21.3,16,21.3-16-21.3-16-21.3,16Z"/>
        <rect class="st1" x="1244.7" y="537.9" width="9.9" height="44.3"/>
      </g>
      <g>
        <rect class="st1" x="1190.4" y="579.7" width="9.9" height="6.1"/>
        <polygon class="st1" points="1207.3 584.1 1183.4 584.1 1195.4 596.1 1207.3 584.1"/>
      </g>
      <path class="st1" d="M315,822.7l-2-9.7c57.2-12.1,84.5-35.3,91.6-42.2,12.5-12.2,19.3-28.9,17.4-42.6-1.4-9.6-6.9-17.3-16.1-22.2l4.7-8.7c12,6.5,19.4,16.7,21.2,29.5,2.4,17-5.4,36.5-20.3,51.1-29.6,28.9-81.3,41.6-96.4,44.8h0Z"/>
      <polygon class="st1" points="317.6 829.4 313.6 805.8 303.8 819.6 317.6 829.4"/>
      <path class="st1" d="M949.4,808.1c-2.7,0-5.4-.1-8.2-.4-66.3-5.9-168-76.2-179.3-84.2-38.4-27-147.7-83.8-331.7-28.2l-2.9-9.5c188.1-56.8,300.6,1.8,340.2,29.6,86,60.4,150.2,80.2,174.5,82.4,23.9,2.1,43.5-6.2,53.7-22.8,8.3-13.6,8.6-30.5.7-43.1-5.3-8.5-19.1-22.4-51.4-19.2l-1-9.8c27.5-2.7,49.6,6,60.7,23.8,9.9,15.8,9.6,36.8-.7,53.5-11,17.9-30.7,27.8-54.8,27.8h0Z"/>
      <polygon class="st1" points="947.8 719.7 944.6 696 934.3 709.4 947.8 719.7"/>
      <path class="st1" d="M836.3,949.7c-3.5,0-8.3-2.2-15.8-5.7-12.7-5.8-34-15.6-43.5-9.9-3.4,2.1-5.3,6.3-5.7,13l-9.8-.6c.6-10,4.1-17.1,10.5-20.9,13.9-8.4,36.3,1.9,52.7,9.4,1.4.7,3,1.4,4.5,2-15.5-32.3-46.1-87.5-115.4-92.5-26.9-2-57.6-8.9-81.9-18.6-32.6-13-54.2-30.6-62.2-51.1l9.2-3.6c8.9,22.5,35.8,37.2,56.7,45.5,23.5,9.3,53,16,79,17.9,34.6,2.5,64.3,17.1,88.3,43.3,19.8,21.6,31.5,46.8,38.6,61.9,2,4.3.4,6.8-.7,8-1.2,1.2-2.6,1.8-4.3,1.8h0Z"/>
      <polygon class="st1" points="778.4 944.9 754.5 945.5 766.7 957.2 778.4 944.9"/>
      <path class="st1" d="M159.3,881.1l-8.5-5.1c18.8-31.2,75.1-34.9,120.3-37.9,28.2-1.8,60.2-4,60.2-13.3h9.9c0,18.6-30.6,20.6-69.5,23.1-42.9,2.8-96.4,6.3-112.5,33.1h0Z"/>
      <polygon class="st1" points="144.9 872.3 166.8 882.1 150.9 888.1 144.9 872.3"/>
      <path class="st1" d="M479.9,969.6c-5-35.6-21-46.3-36.4-56.6-20.9-13.9-40.6-27.1-30.5-90.1l.6-3.8,3.8-.4c54.4-5.3,79.4-17.3,101.5-27.9,15.6-7.5,30.3-14.5,52.4-17.6l1.4,9.8c-20.6,2.9-34,9.3-49.5,16.8-22.3,10.7-47.5,22.8-101,28.5-7.8,53.5,7.5,63.7,26.8,76.5,16.5,11,35.1,23.4,40.7,63.5l-9.8,1.4h0Z"/>
      <polygon class="st1" points="472.6 968.7 496.4 966 485.9 979.3 472.6 968.7"/>
      <polygon class="st1" points="408.5 694 357.1 640.1 357.1 687.9 347.2 687.9 347.2 615.5 415.7 687.2 408.5 694"/>
      <polygon class="st1" points="364.2 686.3 340.2 686.3 352.2 698.3 364.2 686.3"/>
      <polygon class="st1" points="280.6 696.4 270.8 696.4 270.8 615.5 343.7 688.5 336.7 695.5 280.6 639.4 280.6 696.4"/>
      <polygon class="st1" points="287.7 694.8 263.7 694.8 275.7 706.8 287.7 694.8"/>
      <path class="st1" d="M243.4,793.8v-65.8l43.9,32.9-43.9,32.9h0ZM253.3,747.7v26.4l17.6-13.2-17.6-13.2Z"/>
      <rect class="st1" x="243.4" y="737.8" width="9.9" height="46.1"/>
      <rect class="st1" x="205.8" y="788.1" width="9.9" height="4.2" transform="translate(-96.5 32.3) rotate(-7.1)"/>
      <polygon class="st1" points="222.6 789.2 198.8 792.2 212.2 802.6 222.6 789.2"/>
      <path class="st1" d="M1133.9,733.5l-2.4-9.6c69.5-17.4,108.8-49.3,122.5-73.3,8.1-14.2,9.9-29,5.4-43.9l9.4-2.8c5.3,17.6,3.2,35-6.3,51.6-22.3,39.3-81.1,66.1-128.6,78h0Z"/>
      <polygon class="st1" points="1131.5 716.6 1137.1 740 1122.6 731.1 1131.5 716.6"/>
      <path class="st1" d="M1183.1,733.1l-2.8-9.5c77.3-22.5,115-61.8,112-117l9.8-.5c1.7,31.9-8.9,59.3-31.8,81.3-19.9,19.2-49.3,34.6-87.4,45.7h0Z"/>
      <polygon class="st1" points="1186.5 739.4 1180 716.3 1171.7 731.1 1186.5 739.4"/>
      <path class="st1" d="M1345.6,462.8l-8.5-4.9c23.4-40.6,53.4-63.6,91.7-70.4,33.1-5.9,66.8,1,99.3,7.6,40.1,8.2,74.7,15.2,98-4.1,22.6-18.8,33.1-62.7,32.1-134.4h9.9c1.1,75.7-10.2,120.9-35.6,142-26.9,22.3-65.4,14.5-106.3,6.1-31.6-6.4-64.3-13.1-95.6-7.5-35.2,6.3-63,27.7-84.9,65.6h0Z"/>
      <polygon class="st1" points="1650.9 258.2 1674.8 258 1662.8 246.1 1650.9 258.2"/>
      <path class="st1" d="M1558,502c9,.2,21.4-2,29.1-13.8,6.4-9.9,13.6-15.6,22.1-17.4,14.9-3.1,29.8,6.8,45.6,17.2,17.1,11.3,34.8,23,52.5,18.2l2.6,9.5c-3.7,1-7.4,1.5-11,1.5-17.9,0-34.6-11-49.6-21-14-9.3-27.3-18.1-38.1-15.8-5.7,1.2-10.9,5.5-15.8,13.1-8,12.4-21,18.7-37.6,18.3-27.8-.7-60.8-20.9-75.2-46l8.6-4.9c12.6,22,42.7,40.4,66.9,41.1"/>
      <polygon class="st1" points="1702.6 500.4 1711.5 522.7 1718.2 507.1 1702.6 500.4"/>
      <path class="st1" d="M1219.3,735l-1.1-9.8c80-8.8,113.2-44,111.1-117.6v-4.6c-.1,0,4.4-.5,4.4-.5,91.7-9.4,107.5-66.9,119.1-108.9,5.5-20,9.9-35.8,21.8-40.9l3.9,9.1c-7.5,3.2-11.5,17.6-16.1,34.4-11.5,41.6-28.7,104-123.1,115.6.4,40.6-10.3,70.2-32.5,90.5-19.5,17.8-47.3,28.2-87.5,32.6h0Z"/>
      <polygon class="st1" points="1219.2 718 1221.6 741.8 1208.4 731.1 1219.2 718"/>
      <g>
        <path class="st1" d="M1218.8,617.8c-20.7,0-38.1-7.9-47.4-22.2-8.1-12.4-16.6-40.2,16.9-87.1l8,5.7c-22,30.8-28.1,58.5-16.7,76,9.7,14.9,31,21,55.5,16l1.2-.2h.4c7.5-.7,54.2-10.8,83.7-39.7,10.7-10.4,17-24,17-36.2,0-8.1-2.9-15.2-8.3-20.5l6.9-7.1c7.4,7.2,11.3,16.7,11.3,27.5,0,14.9-7.4,31.1-19.9,43.3-18,17.6-41.3,28.2-57.6,34.1-12.2,4.4-26.6,8-32.6,8.4h0c-6.3,1.3-12.5,2-18.4,2h0ZM1236.3,606.1h0Z"/>
        <polygon class="st1" points="1341 497.5 1326.7 516.7 1324.3 499.9 1341 497.5"/>
      </g>
      <g>
        <polygon class="st1" points="1324.4 492.6 1275.3 441.2 1275.3 486.3 1265.5 486.3 1265.5 416.6 1331.5 485.8 1324.4 492.6"/>
        <polygon class="st1" points="1282.4 484.7 1258.4 484.7 1270.4 496.6 1282.4 484.7"/>
      </g>
      <g>
        <polygon class="st1" points="1201.9 494.4 1192 494.4 1192 416.7 1262.4 487.1 1255.4 494 1201.9 440.5 1201.9 494.4"/>
        <polygon class="st1" points="1208.9 492.8 1185 492.8 1196.9 504.8 1208.9 492.8"/>
      </g>
      <g>
        <g>
          <polygon class="st2" points="1167.4 582.2 1196.9 560 1167.4 537.9 1137.8 560 1167.4 582.2"/>
          <path class="st1" d="M1167.4,588.3l-37.8-28.3,37.8-28.3,37.8,28.3-37.8,28.3ZM1146.1,560l21.3,16,21.3-16-21.3-16-21.3,16Z"/>
        </g>
        <rect class="st1" x="1162.4" y="537.9" width="9.9" height="44.3"/>
      </g>
      <g>
        <path class="st1" d="M1249.6,588.3l-37.8-28.3,37.8-28.3,37.8,28.3-37.8,28.3ZM1228.3,560l21.3,16,21.3-16-21.3-16-21.3,16Z"/>
        <rect class="st1" x="1244.7" y="537.9" width="9.9" height="44.3"/>
      </g>
      <g>
        <rect class="st1" x="1190.4" y="579.7" width="9.9" height="6.1"/>
        <polygon class="st1" points="1207.3 584.1 1183.4 584.1 1195.4 596.1 1207.3 584.1"/>
      </g>
      </g>
  </g>
</svg>