<?xml version="1.0" encoding="UTF-8"?>
<svg id="UI" xmlns="http://www.w3.org/2000/svg" version="1.1" viewBox="0 0 1280 1024">
  <!-- Generator: Adobe Illustrator 29.5.0, SVG Export Plug-In . SVG Version: 2.1.0 Build 137)  -->
  <defs>
    <style>
      .st0 {
        isolation: isolate;
      }

      .st1 {
        fill: #231815;
      }
    </style>
  </defs>
  <g>
    <path d="M166.6,154.9h32.5v-29.5h11.4v75.3h-11.4v-35.2h-32.5v35.2h-11.4v-75.3h11.4v29.5h0Z"/>
    <path d="M249.9,125.4v75.3h-11.4v-75.3s11.4,0,11.4,0Z"/>
    <path d="M278,200.7v-80.4l54.9,57.5v-52.3h11.4v79.9l-54.9-57.3v52.7h-11.4Z"/>
    <path d="M393.1,136.1v64.6h-11.4v-64.6h-17.3v-10.7h46v10.7h-17.3Z"/>
  </g>
  <g class="st0">
    <g class="st0">
      <path d="M206.8,592.9l-9.2,5.5c-1.7-3-3.4-4.9-4.9-5.9-1.6-1-3.7-1.6-6.3-1.6s-5.8.9-7.9,2.7c-2.1,1.8-3.1,4-3.1,6.6s2.7,6.6,8.2,8.9l7.5,3.1c6.1,2.5,10.6,5.5,13.4,9,2.8,3.6,4.2,7.9,4.2,13.1s-2.3,12.7-6.9,17.2c-4.7,4.6-10.4,6.8-17.3,6.8s-11.9-1.9-16.2-5.8c-4.2-3.9-6.8-9.3-7.9-16.3l11.5-2.5c.5,4.4,1.4,7.5,2.7,9.2,2.3,3.3,5.8,4.9,10.2,4.9s6.5-1.2,8.8-3.6c2.3-2.4,3.5-5.4,3.5-9s-.2-2.8-.6-4c-.4-1.2-1-2.3-1.9-3.4-.9-1-2-2-3.3-2.9-1.4-.9-3-1.7-4.9-2.6l-7.3-3c-10.3-4.4-15.5-10.7-15.5-19.1s2.2-10.4,6.5-14.2,9.7-5.8,16.1-5.8,15.5,4.2,20.3,12.7h.3Z"/>
    </g>
    <g class="st0">
      <path d="M250.3,592.4v64.6h-11.4v-64.6h-17.3v-10.7h46v10.7h-17.3Z"/>
    </g>
    <g class="st0">
      <path d="M321.9,638.7h-32.2l-8.4,18.3h-12.2l37.3-80.1,36,80.1h-12.4l-7.9-18.3h-.2ZM317.3,628l-11.2-25.6-11.7,25.6h22.9Z"/>
    </g>
    <g class="st0">
      <path d="M380.7,624.9l23.3,32.1h-13.9l-21.5-30.8h-2v30.8h-11.4v-75.3h13.3c10,0,17.1,1.9,21.6,5.6,4.9,4.2,7.3,9.7,7.3,16.5s-1.5,9.9-4.6,13.8c-3.1,3.8-7.1,6.3-12.1,7.4h0ZM366.6,616.3h3.6c10.8,0,16.1-4.1,16.1-12.3s-5.2-11.6-15.7-11.6h-4v23.9h0Z"/>
    </g>
    <g class="st0">
      <path d="M443.1,592.4v64.6h-11.4v-64.6h-17.3v-10.7h46v10.7h-17.3Z"/>
    </g>
  </g>
  <g class="st0">
    <g class="st0">
      <path d="M189.8,780.7l23.3,32.1h-13.9l-21.5-30.8h-2v30.8h-11.4v-75.3h13.3c10,0,17.1,1.9,21.6,5.6,4.9,4.2,7.3,9.7,7.3,16.5s-1.5,9.9-4.6,13.8c-3.1,3.8-7.1,6.3-12.1,7.4h0ZM175.6,772.1h3.6c10.8,0,16.1-4.1,16.1-12.3s-5.2-11.6-15.7-11.6h-4v23.9h0Z"/>
      <path d="M268,748.2h-30.2v18.1h29.3v10.7h-29.3v25.2h30.2v10.7h-41.6v-75.3h41.6v10.7h0Z"/>
    </g>
    <g class="st0">
      <path d="M328.1,794.5h-32.2l-8.4,18.3h-12.2l37.3-80.1,36,80.1h-12.4l-7.9-18.3h-.2ZM323.5,783.8l-11.2-25.6-11.7,25.6h22.9Z"/>
    </g>
    <g class="st0">
      <path d="M357.9,812.8v-75.3h15.8c7.6,0,13.6.7,18,2.2,4.7,1.5,9,4,12.8,7.5,7.8,7.1,11.7,16.4,11.7,28s-4,20.9-12.1,28.1c-4.1,3.6-8.3,6.1-12.8,7.5-4.2,1.4-10.1,2.1-17.7,2.1h-15.7ZM369.3,802.1h5.1c5.1,0,9.4-.5,12.7-1.6,3.4-1.1,6.4-2.9,9.2-5.4,5.6-5.1,8.4-11.8,8.4-20s-2.8-15-8.3-20.1c-5-4.6-12.3-6.9-22-6.9h-5.1v54h0Z"/>
    </g>
    <g class="st0">
      <path d="M446.2,780.3l-24.6-42.8h13.1l17.2,30.1,17.3-30.1h13.1l-24.7,42.8v32.5h-11.4v-32.5Z"/>
    </g>
    <g class="st0">
      <path d="M515.1,777.6h11c0,4.9-1.3,8.9-4,12-3.4,3.9-7.8,5.9-13.1,5.9s-8.6-1.6-11.8-4.9c-3.2-3.3-4.8-7.3-4.8-12.1s1-6.8,3-9.1,5.4-4.3,10.2-6.1c4.8-1.8,7.8-3.2,9.1-4.2,1.3-1.1,2-2.7,2-5s-.7-4-2-5.3c-1.4-1.3-3.1-2-5.4-2s-4,.7-5.4,2c-1.3,1.3-2,3.1-2,5.3s.2,2.4.6,4.2h-11.4c0-.8-.1-1.6-.2-2.2v-1.8c0-5.1,1.7-9.4,5.2-12.8,3.4-3.4,7.8-5.1,13.1-5.1s9.7,1.7,13.3,5.2c3.5,3.4,5.3,7.8,5.3,12.9s-1.8,9.6-5.3,12.8c-2.2,2-6.5,4-12.7,6-4.2,1.3-6.3,3.4-6.3,6.1s.2,1.5.5,2.2.7,1.3,1.2,1.8,1.1.9,1.8,1.2c.7.3,1.4.4,2.2.4,3.6,0,5.5-2.5,5.9-7.5h0ZM502.6,807.3c0-1.8.7-3.4,2-4.7s2.9-2,4.8-2,3.4.7,4.8,2c1.3,1.3,2,2.9,2,4.8s-.7,3.5-2,4.8-2.9,2-4.7,2-3.5-.7-4.8-2-2-3-2-4.9h-.1Z"/>
    </g>
  </g>
  <g>
    <path d="M210.9,287.2v13.5c-6.6-5.5-13.4-8.2-20.4-8.2s-14.3,2.8-19.6,8.3-8,12.3-8,20.3,2.7,14.6,8,20,11.9,8.1,19.6,8.1,7.4-.6,10.2-2c1.6-.6,3.2-1.5,4.9-2.6s3.4-2.4,5.3-4v13.7c-6.5,3.7-13.3,5.5-20.5,5.5-10.8,0-19.9-3.8-27.6-11.3-7.6-7.6-11.4-16.7-11.4-27.4s3.2-18.1,9.5-25.7c7.8-9.2,17.9-13.8,30.3-13.8s13.3,1.8,19.6,5.5h0Z"/>
    <path d="M244.1,283.1v64.6h22.1v10.7h-33.5v-75.3h11.4Z"/>
    <path d="M327.6,293.8h-30.2v18.1h29.3v10.7h-29.3v25.2h30.2v10.7h-41.6v-75.3h41.6v10.7h0Z"/>
    <path d="M394.3,340.2h-32.2l-8.4,18.3h-12.2l37.3-80.1,36,80.1h-12.4l-7.9-18.3h-.2ZM389.6,329.5l-11.2-25.6-11.7,25.6h22.9Z"/>
    <path d="M458.5,326.4l23.3,32.1h-13.9l-21.5-30.8h-2v30.8h-11.4v-75.3h13.3c10,0,17.1,1.9,21.6,5.6,4.9,4.2,7.3,9.7,7.3,16.5s-1.5,9.9-4.6,13.8-7.1,6.3-12.1,7.4h0ZM444.4,317.7h3.6c10.8,0,16.1-4.1,16.1-12.3s-5.2-11.6-15.7-11.6h-4v23.9h0Z"/>
  </g>
  <g>
    <path d="M196.8,447.4h-30.2v18.1h29.3v10.7h-29.3v25.2h30.2v10.7h-41.6v-75.3h41.6v10.7h0Z"/>
    <path d="M236.5,472.6l-20.7-36h12.9l14.4,25.5,15.1-25.5h13l-21.7,36,22.8,39.4h-12.7l-16.7-28.8-17.2,28.8h-12.9l23.7-39.4h0Z"/>
    <path d="M302.8,436.7v75.3h-11.4v-75.3h11.4Z"/>
    <path d="M351.2,447.4v64.6h-11.4v-64.6h-17.3v-10.7h46v10.7h-17.3Z"/>
  </g>
  <g>
    <path class="st1" d="M664,136.4l-9.2,5.5c-1.7-3-3.4-4.9-4.9-5.9-1.6-1-3.7-1.6-6.3-1.6s-5.8.9-7.9,2.7c-2.1,1.8-3.1,4-3.1,6.6s2.7,6.6,8.2,8.9l7.5,3.1c6.1,2.5,10.6,5.5,13.4,9.1s4.2,7.9,4.2,13.1-2.3,12.7-6.9,17.2c-4.7,4.6-10.4,6.8-17.3,6.8s-11.9-1.9-16.2-5.8c-4.2-3.9-6.8-9.3-7.9-16.3l11.5-2.5c.5,4.4,1.4,7.5,2.7,9.2,2.3,3.3,5.8,4.9,10.2,4.9s6.5-1.2,8.8-3.6c2.3-2.4,3.5-5.4,3.5-9s-.2-2.8-.6-4-1-2.3-1.9-3.4c-.9-1-2-2-3.3-2.9-1.4-.9-3-1.7-4.9-2.6l-7.3-3c-10.3-4.4-15.5-10.7-15.5-19.1s2.2-10.4,6.5-14.2c4.3-3.8,9.7-5.8,16.2-5.8s15.5,4.2,20.3,12.7Z"/>
    <path class="st1" d="M681.9,125.1l19.6,50.4,20.5-54,19.6,54,20.8-50.4h12.3l-33.7,80.1-19.4-53.4-20.2,53.4-32-80.2h12.3Z"/>
    <path class="st1" d="M819.9,182.2h-32.3l-8.4,18.3h-12.2l37.3-80.1,36,80.1h-12.4l-7.9-18.3ZM815.3,171.5l-11.2-25.6-11.7,25.6h22.9Z"/>
    <path class="st1" d="M860.9,167.9l-24.6-42.8h13.1l17.2,30.1,17.3-30.1h13.1l-24.7,42.8v32.5h-11.4v-32.5Z"/>
    <path class="st1" d="M927.2,125.1l19.6,50.4,20.5-54,19.6,54,20.8-50.4h12.3l-33.7,80.1-19.4-53.4-20.2,53.4-32-80.2h12.3Z"/>
    <path class="st1" d="M1065.7,182.2h-32.3l-8.4,18.3h-12.2l37.3-80.1,36,80.1h-12.4l-7.9-18.3ZM1061.1,171.5l-11.2-25.6-11.7,25.6h22.9Z"/>
    <path class="st1" d="M1106.2,167.9l-24.6-42.8h13.1l17.2,30.1,17.3-30.1h13.1l-24.7,42.8v32.5h-11.4v-32.5Z"/>
    <path class="st1" d="M1191.1,136.4l-9.2,5.5c-1.7-3-3.4-4.9-4.9-5.9-1.6-1-3.7-1.6-6.3-1.6s-5.8.9-7.9,2.7c-2.1,1.8-3.1,4-3.1,6.6s2.7,6.6,8.2,8.9l7.5,3.1c6.1,2.5,10.6,5.5,13.4,9.1,2.8,3.6,4.2,7.9,4.2,13.1s-2.3,12.7-6.9,17.2c-4.7,4.6-10.4,6.8-17.3,6.8s-11.9-1.9-16.2-5.8c-4.2-3.9-6.8-9.3-7.9-16.3l11.5-2.5c.5,4.4,1.4,7.5,2.7,9.2,2.3,3.3,5.8,4.9,10.2,4.9s6.5-1.2,8.8-3.6c2.3-2.4,3.5-5.4,3.5-9s-.2-2.8-.6-4-1-2.3-1.9-3.4c-.9-1-2-2-3.3-2.9-1.4-.9-3-1.7-4.9-2.6l-7.3-3c-10.3-4.4-15.5-10.7-15.5-19.1s2.2-10.4,6.5-14.2c4.3-3.8,9.7-5.8,16.2-5.8s15.5,4.2,20.3,12.7Z"/>
  </g>
</svg>