<?xml version="1.0" encoding="UTF-8"?>
<svg id="_レイヤー_1" data-name="レイヤー_1" xmlns="http://www.w3.org/2000/svg" version="1.1" viewBox="0 0 1920 1080">
  <!-- Generator: Adobe Illustrator 29.5.0, SVG Export Plug-In . SVG Version: 2.1.0 Build 137)  -->
  <defs>
    <style>
      .st0 {
        fill: #43b149;
      }

      .st1 {
        fill: #e83817;
      }

      .st2 {
        fill: #fff;
      }
    </style>
  </defs>
  <g id="UI">
    <g>
      <g>
        </g>
      <g>
        </g>
      <g>
        </g>
      <g>
        <g>
          <polygon class="st2" points="1167.4 582.2 1196.9 560 1167.4 537.9 1137.8 560 1167.4 582.2"/>
          </g>
        </g>
      <g>
        </g>
      <g>
        </g>
      <g>
        </g>
      <g>
        </g>
      <g>
        </g>
      <g>
        <g>
          <polygon class="st2" points="1167.4 582.2 1196.9 560 1167.4 537.9 1137.8 560 1167.4 582.2"/>
          </g>
        </g>
      <g>
        </g>
      <g>
        </g>
      <polygon class="st0" points="1652.8 649.7 1412 649.7 1412 639.8 1643 639.8 1643 552.4 1652.8 552.4 1652.8 649.7"/>
      <polygon class="st0" points="1659.9 554 1635.9 554 1647.9 542 1659.9 554"/>
      <polygon class="st0" points="1775.1 958 865.7 958 865.7 860.7 875.5 860.7 875.5 948.1 1765.2 948.1 1765.2 547 1670.9 547 1670.9 537.1 1775.1 537.1 1775.1 958"/>
      <polygon class="st0" points="882.6 862.2 858.6 862.2 870.6 850.3 882.6 862.2"/>
      <polygon class="st0" points="1134.6 855.2 892.3 855.2 892.3 845.3 1124.8 845.3 1124.8 757.9 1134.6 757.9 1134.6 855.2"/>
      <polygon class="st0" points="1141.7 759.5 1117.7 759.5 1129.7 747.5 1141.7 759.5"/>
      <polygon class="st0" points="1393.7 752.5 1154.3 752.5 1154.3 742.6 1383.9 742.6 1383.9 655.2 1393.7 655.2 1393.7 752.5"/>
      <polygon class="st0" points="1400.8 656.8 1376.8 656.8 1388.8 644.8 1400.8 656.8"/>
      <polygon class="st0" points="1652.8 649.7 1412 649.7 1412 639.8 1643 639.8 1643 552.4 1652.8 552.4 1652.8 649.7"/>
      <polygon class="st0" points="1659.9 554 1635.9 554 1647.9 542 1659.9 554"/>
      <polygon class="st0" points="1775.1 958 865.7 958 865.7 860.7 875.5 860.7 875.5 948.1 1765.2 948.1 1765.2 547 1670.9 547 1670.9 537.1 1775.1 537.1 1775.1 958"/>
      <polygon class="st0" points="882.6 862.2 858.6 862.2 870.6 850.3 882.6 862.2"/>
      <polygon class="st0" points="1134.6 855.2 892.3 855.2 892.3 845.3 1124.8 845.3 1124.8 757.9 1134.6 757.9 1134.6 855.2"/>
      <polygon class="st0" points="1141.7 759.5 1117.7 759.5 1129.7 747.5 1141.7 759.5"/>
      <polygon class="st0" points="1393.7 752.5 1154.3 752.5 1154.3 742.6 1383.9 742.6 1383.9 655.2 1393.7 655.2 1393.7 752.5"/>
      <polygon class="st0" points="1400.8 656.8 1376.8 656.8 1388.8 644.8 1400.8 656.8"/>
    </g>
  </g>
</svg>